<svg version="1.1" xmlns="http://www.w3.org/2000/svg" xmlns:xlink="http://www.w3.org/1999/xlink" width="599.95766" height="391.34212" viewBox="0,0,599.95766,391.34212"><g transform="translate(61.12976,16.49368)"><g fill="#000000" stroke="none" stroke-width="0" stroke-miterlimit="10"><g><path d="M-58.85685,303.71713v-2.37493h579.88975v2.37493z"/><path d="M-58.37541,308.78783v-2.37493h584.70408v2.37493z"/><path d="M-58.51296,313.26258v-2.37493h579.88975v2.37493z"/><path d="M-58.03153,318.33329v-2.37493h584.70408v2.37493z"/><path d="M-58.34102,322.65652v-2.37493h579.88975v2.37493z"/><path d="M-57.85959,327.72723v-2.37493h584.70408v2.37493z"/><path d="M-57.99714,332.20198v-2.37493h579.88975v2.37493z"/><path d="M-57.51571,337.27268v-2.37493h584.70408v2.37493z"/><path d="M-57.48132,341.29289v-2.37493h579.88975v2.37493z"/><path d="M-56.99989,346.36359v-2.37493h584.70408v2.37493z"/><path d="M-57.13744,350.83834v-2.37493h579.88975v2.37493z"/><path d="M-56.65601,355.90905v-2.37493h584.70408v2.37493z"/><path d="M-56.9655,360.23228v-2.37493h579.88975v2.37493z"/><path d="M-56.48407,365.30299v-2.37493h584.70408v2.37493z"/><path d="M-56.62162,369.77774v-2.37493h579.88975v2.37493z"/><path d="M-56.14019,374.84844v-2.37493h584.70408v2.37493z"/><path d="M-54.01668,228.05461v-2.37493h579.88975v2.37493z"/><path d="M-53.53525,233.12531v-2.37493h584.70408v2.37493z"/><path d="M-53.6728,237.60006v-2.37493h579.88975v2.37493z"/><path d="M-53.19137,242.67077v-2.37493h584.70408v2.37493z"/><path d="M-53.50086,246.994v-2.37493h579.88975v2.37493z"/><path d="M-53.01943,252.06471v-2.37493h584.70408v2.37493z"/><path d="M-53.15698,256.53946v-2.37493h579.88975v2.37493z"/><path d="M-52.67554,261.61016v-2.37493h584.70408v2.37493z"/><path d="M-52.64115,265.63037v-2.37493h579.88975v2.37493z"/><path d="M-52.15972,270.70107v-2.37493h584.70408v2.37493z"/><path d="M-52.29727,275.17582v-2.37493h579.88975v2.37493z"/><path d="M-51.81584,280.24653v-2.37493h584.70408v2.37493z"/><path d="M-52.12533,284.56976v-2.37493h579.88975v2.37493z"/><path d="M-51.6439,289.64047v-2.37493h584.70408v2.37493z"/><path d="M-51.78145,294.11522v-2.37493h579.88975v2.37493z"/><path d="M-51.30002,299.18592v-2.37493h584.70408v2.37493z"/></g><g><path d="M-61.12976,151.57426v-2.37493h579.88975v2.37493z"/><path d="M-60.64833,156.64496v-2.37493h584.70408v2.37493z"/><path d="M-60.78588,161.11971v-2.37493h579.88974v2.37493z"/><path d="M-60.30445,166.19042v-2.37493h584.70408v2.37493z"/><path d="M-60.61394,170.51365v-2.37493h579.88974v2.37493z"/><path d="M-60.13251,175.58436v-2.37493h584.70408v2.37493z"/><path d="M-60.27006,180.05911v-2.37493h579.88975v2.37493z"/><path d="M-59.78863,185.12981v-2.37493h584.70408v2.37493z"/><path d="M-59.75424,189.15002v-2.37493h579.88975v2.37493z"/><path d="M-59.27281,194.22072v-2.37493h584.70408v2.37493z"/><path d="M-59.41036,198.69547v-2.37493h579.88974v2.37493z"/><path d="M-58.92893,203.76618v-2.37493h584.70408v2.37493z"/><path d="M-59.23842,208.08941v-2.37493h579.88975v2.37493z"/><path d="M-58.75699,213.16012v-2.37493h584.70408v2.37493z"/><path d="M-58.89454,217.63487v-2.37493h579.88974v2.37493z"/><path d="M-58.41311,222.70557v-2.37493h584.70408v2.37493z"/><path d="M-56.28959,75.91174v-2.37493h579.88974v2.37493z"/><path d="M-55.80816,80.98244v-2.37493h584.70408v2.37493z"/><path d="M-55.94571,85.45719v-2.37493h579.88974v2.37493z"/><path d="M-55.46428,90.5279v-2.37493h584.70408v2.37493z"/><path d="M-55.77377,94.85113v-2.37493h579.88974v2.37493z"/><path d="M-55.29234,99.92184v-2.37493h584.70408v2.37493z"/><path d="M-55.42989,104.39659v-2.37493h579.88974v2.37493z"/><path d="M-54.94846,109.46729v-2.37493h584.70408v2.37493z"/><path d="M-54.91407,113.4875v-2.37493h579.88975v2.37493z"/><path d="M-54.43264,118.5582v-2.37493h584.70408v2.37493z"/><path d="M-54.57019,123.03295v-2.37493h579.88974v2.37493z"/><path d="M-54.08876,128.10366v-2.37493h584.70408v2.37493z"/><path d="M-54.39825,132.42689v-2.37493h579.88974v2.37493z"/><path d="M-53.91682,137.4976v-2.37493h584.70408v2.37493z"/><path d="M-54.05437,141.97235v-2.37493h579.88975v2.37493z"/><path d="M-53.57294,147.04305v-2.37493h584.70408v2.37493z"/></g><path d="M-53.43301,-0.04209v-2.37493h579.88975v2.37493z"/><path d="M-52.95158,5.02862v-2.37493h584.70408v2.37493z"/><path d="M-53.08913,9.50337v-2.37493h579.88975v2.37493z"/><path d="M-52.6077,14.57407v-2.37493h584.70408v2.37493z"/><path d="M-52.91719,18.89731v-2.37493h579.88974v2.37493z"/><path d="M-52.43576,23.96801v-2.37493h584.70408v2.37493z"/><path d="M-52.57331,28.44276v-2.37493h579.88975v2.37493z"/><path d="M-52.09188,33.51347v-2.37493h584.70408v2.37493z"/><path d="M-52.05749,37.53367v-2.37493h579.88975v2.37493z"/><path d="M-51.57606,42.60438v-2.37493h584.70408v2.37493z"/><path d="M-51.71361,47.07913v-2.37493h579.88974v2.37493z"/><path d="M-51.23218,52.14983v-2.37493h584.70408v2.37493z"/><path d="M-51.54167,56.47307v-2.37493h579.88975v2.37493z"/><path d="M-51.06024,61.54377v-2.37493h584.70408v2.37493z"/><path d="M-51.19779,66.01852v-2.37493h579.88975v2.37493z"/><path d="M-50.71636,71.08923v-2.37493h584.70408v2.37493z"/><path d="M-46.22007,-14.11875v-2.37493h584.70408v2.37493z"/><path d="M-46.35762,-9.644v-2.37493h579.88975v2.37493z"/><path d="M-45.87619,-4.57329v-2.37493h584.70408v2.37493z"/></g></g></svg>